<?xml version="1.0" encoding="UTF-8" standalone="no"?>
<!-- Created with Inkscape (http://www.inkscape.org/) --><svg height="425.04349" id="svg2213" inkscape:version="0.43+devel" sodipodi:docbase="/home/users/mimooh" sodipodi:docname="rom.svg" sodipodi:version="0.32" version="1.0" width="579.06921" xmlns="http://www.w3.org/2000/svg" xmlns:cc="http://web.resource.org/cc/" xmlns:dc="http://purl.org/dc/elements/1.1/" xmlns:inkscape="http://www.inkscape.org/namespaces/inkscape" xmlns:rdf="http://www.w3.org/1999/02/22-rdf-syntax-ns#" xmlns:sodipodi="http://sodipodi.sourceforge.net/DTD/sodipodi-0.dtd" xmlns:svg="http://www.w3.org/2000/svg" xmlns:xlink="http://www.w3.org/1999/xlink">
  <metadata>
    <rdf:RDF xmlns:cc="http://web.resource.org/cc/" xmlns:dc="http://purl.org/dc/elements/1.1/" xmlns:rdf="http://www.w3.org/1999/02/22-rdf-syntax-ns#">
      <cc:Work rdf:about="">
        <dc:title>chip</dc:title>
        <dc:description></dc:description>
        <dc:subject>
          <rdf:Bag>
            <rdf:li>chip</rdf:li>
            <rdf:li>rom</rdf:li>
            <rdf:li>computer</rdf:li>
          </rdf:Bag>
        </dc:subject>
        <dc:publisher>
          <cc:Agent rdf:about="http://www.openclipart.org/">
            <dc:title>Open Clip Art Library</dc:title>
          </cc:Agent>
        </dc:publisher>
        <dc:creator>
          <cc:Agent>
            <dc:title>mimooh</dc:title>
          </cc:Agent>
        </dc:creator>
        <dc:rights>
          <cc:Agent>
            <dc:title></dc:title>
          </cc:Agent>
        </dc:rights>
        <dc:date></dc:date>
        <dc:format>image/svg+xml</dc:format>
        <dc:type rdf:resource="http://purl.org/dc/dcmitype/StillImage"/>
        <cc:license rdf:resource="http://web.resource.org/cc/PublicDomain"/>
        <dc:language>en</dc:language>
      </cc:Work>
      <cc:License rdf:about="http://web.resource.org/cc/PublicDomain">
        <cc:permits rdf:resource="http://web.resource.org/cc/Reproduction"/>
        <cc:permits rdf:resource="http://web.resource.org/cc/Distribution"/>
        <cc:permits rdf:resource="http://web.resource.org/cc/DerivativeWorks"/>
      </cc:License>
    </rdf:RDF>
  </metadata>
  <defs id="defs2215">
    <linearGradient id="linearGradient7976" inkscape:collect="always">
      <stop id="stop7978" offset="0" style="stop-color:white;stop-opacity:1;"/>
      <stop id="stop7980" offset="1" style="stop-color:white;stop-opacity:0;"/>
    </linearGradient>
    <linearGradient gradientTransform="matrix(4.650591e-2,0,0,4.650591e-2,1053.091,380.9419)" gradientUnits="userSpaceOnUse" id="linearGradient2034" inkscape:collect="always" x1="-15274.702" x2="-8899.2793" xlink:href="#linearGradient7976" y1="3759.0276" y2="4721.2944"/>
    <linearGradient id="linearGradient7966" inkscape:collect="always">
      <stop id="stop7968" offset="0" style="stop-color:white;stop-opacity:1;"/>
      <stop id="stop7970" offset="1" style="stop-color:white;stop-opacity:0;"/>
    </linearGradient>
    <linearGradient gradientUnits="userSpaceOnUse" id="linearGradient2032" inkscape:collect="always" x1="-14463.088" x2="-8880.2188" xlink:href="#linearGradient7966" y1="2078.5425" y2="3645.76"/>
  </defs>
  <sodipodi:namedview bordercolor="#666666" borderopacity="1.0" id="base" inkscape:current-layer="layer1" inkscape:cx="512.44802" inkscape:cy="657.29645" inkscape:document-units="px" inkscape:pageopacity="0.0" inkscape:pageshadow="2" inkscape:window-height="742" inkscape:window-width="1014" inkscape:window-x="0" inkscape:window-y="0" inkscape:zoom="0.24748738" pagecolor="#ffffff"/>
  <g id="layer1" inkscape:groupmode="layer" inkscape:label="Warstwa 1" transform="translate(-79.74977,-363.5537)">
    <g id="g2086" transform="matrix(4.39017,0,0,4.39017,-2525.813,-1579.999)">
      <g id="g8273" transform="matrix(0.170182,0,0,0.170182,595.605,400.7214)">
        <path d="M 286.28125,295.65625 C 218.51248,321.13789 150.61192,346.48008 83.21875,372.84375 C 72.59856,381.76072 76.146112,397.13138 75.626291,409.3433 C 75.104787,423.92362 74.872702,438.81643 74.75,453.21875 C 67.567725,456.88404 56.049765,458.25159 54,467.46875 C 53.500202,474.54642 56.22041,481.3982 55.794741,488.51527 C 58.60363,519.63505 61.331736,550.76249 64.21875,581.875 C 88.917171,591.29725 106.90299,614.80347 133.75,619.15625 C 142.46144,620.25552 151.8648,617.08222 157,609.71875 C 157.83354,622.49071 159.27741,635.24332 160.4375,648 C 183.26888,664.3125 206.27312,683.12904 234.46875,688.5 C 247.16791,688.88861 256.44075,678.09967 265,670.28125 C 268.59038,664.28 267.82895,671.47928 268.31156,675.21773 C 269.95466,693.41625 271.58374,711.61613 273.25,729.8125 C 299.16089,738.13415 318.1266,761.88747 345.5625,766.65625 C 353.37763,767.94135 361.42752,764.64856 365.84375,758.1875 C 371.73559,753.94619 378.66054,750.6944 382.5,744.125 C 387.48013,737.23552 387.99061,728.4333 386.46875,720.34375 C 385.52003,703.84746 385.36551,687.31994 384.6875,670.8125 C 391.21875,667.29167 397.75,663.77083 404.28125,660.25 C 422.89465,671.55717 441.50581,682.86837 460.1875,694.0625 C 515.60392,662.90582 571.02087,631.75007 626.4375,600.59375 C 636.11401,611.01093 654.90957,612.35124 664.3125,601.03125 C 674.55214,592.28622 689.19997,586.40184 692.90625,572.1875 C 695.44766,561.62972 693.07441,550.49082 694.02825,539.68762 C 693.71301,516.74685 694.37701,493.71115 696.375,470.90625 C 694.31939,458.32716 680.69985,453.11865 669.70627,450.90643 C 644.06177,442.30085 619.54781,428.29465 592.34375,425.25 C 585.597,426.11967 580.66892,431.29022 574.8125,434.25 C 570.71499,431.97699 564.39632,430.70344 562.03125,426.96875 C 562.90566,415.8002 565.21079,401.61125 555.46875,393.53125 C 544.06721,385.39249 529.78579,383.10839 517.64969,376.17383 C 506.93961,371.45206 496.15648,366.89214 485.4375,362.1875 C 475.81961,367.03186 466.26047,372.20684 456.59375,376.78125 C 452.55678,375.12254 449.06529,371.81181 449.8125,367.25 C 449.01822,359.48031 453.21395,350.28204 447.03125,343.59375 C 438.97972,332.75446 423.7358,332.73276 412.5,326.78125 C 401.60979,322.76475 390.69652,316.99836 379.625,314.59375 C 370.82108,318.69908 361.93541,322.62591 353.09375,326.65625 C 331.11333,316.15943 309.31524,305.27427 287.0625,295.375 L 286.28125,295.65625 z M 283.28125,586.78125 C 287.38297,590.0423 299.43218,593.39214 289.17468,596.49278 C 283.58791,599.70056 278.01469,602.93184 272.4375,606.15625 C 273.59249,601.4966 269.22965,593.80898 274.28125,591.34375 C 277.15852,589.76557 280.07718,587.85424 283.28125,586.78125 z " id="path8184" style="color:black;fill:black;fill-opacity:1;fill-rule:nonzero;stroke:none;stroke-width:8;stroke-linecap:butt;stroke-linejoin:miter;marker:none;marker-start:none;marker-mid:none;marker-end:none;stroke-miterlimit:4;stroke-dasharray:none;stroke-dashoffset:0;stroke-opacity:1;visibility:visible;display:inline;overflow:visible"/>
        <g id="g7908" transform="matrix(4.650591e-2,0,0,4.650591e-2,1051.08,378.931)">
          <g id="g7803" transform="translate(-11626.48,-3570.944)">
            <path d="M -2837.4141,2700.3896 L -8845.2057,5793.5185 L -9070.0392,7542.3859 L -8011.5051,8296.8834 L -7579.5651,8005.1611 L -7636.3732,6421.8728 L -2973.8046,3997.2271 L -2980.3566,4600.3571 L -2351.9064,5014.1474 L -1781.0383,4830.7288 L -1770.9979,3058.9623 L -2837.4141,2700.3896 z " id="path7791" sodipodi:nodetypes="cccccccccccc" style="opacity:1;color:black;fill:#555753;fill-opacity:1;fill-rule:nonzero;stroke:none;stroke-width:7.99999952;stroke-linecap:butt;stroke-linejoin:miter;marker:none;marker-start:none;marker-mid:none;marker-end:none;stroke-miterlimit:4;stroke-dasharray:none;stroke-dashoffset:0;stroke-opacity:1;visibility:visible;display:inline;overflow:visible"/>
            <path d="M -129.21403,312.78776 L -435.63961,451.88847 L -427.18286,546.04338 L -372.96589,577.18297 L -377.60866,476.92116 L -81.48505,331.64051 L -129.21403,312.78776 z " id="rect7786" sodipodi:nodetypes="ccccccc" style="opacity:1;color:black;fill:#d3d7cf;fill-opacity:1;fill-rule:nonzero;stroke:none;stroke-width:8;stroke-linecap:butt;stroke-linejoin:miter;marker:none;marker-start:none;marker-mid:none;marker-end:none;stroke-miterlimit:4;stroke-dasharray:none;stroke-dashoffset:0;stroke-opacity:1;visibility:visible;display:inline;overflow:visible" transform="matrix(21.50265,0,0,21.50265,0,-4082.286)"/>
            <path d="M -9271.0611,5604.449 L -8282.7754,6169.1837 C -8282.7754,6169.1837 -9176.9386,5933.8776 -9271.0611,5604.449 z " id="path7801" style="opacity:1;color:black;fill:white;fill-opacity:1;fill-rule:nonzero;stroke:none;stroke-width:8;stroke-linecap:butt;stroke-linejoin:miter;marker:none;marker-start:none;marker-mid:none;marker-end:none;stroke-miterlimit:4;stroke-dasharray:none;stroke-dashoffset:0;stroke-opacity:1;visibility:visible;display:inline;overflow:visible"/>
          </g>
          <path d="M -14600.745,415.94907 L -13847.764,-7.6019449 L -13847.765,1463.0613 L -14588.979,1039.5103 L -14600.745,415.94907 z " id="path7906" sodipodi:nodetypes="ccccc" style="opacity:0.2;color:black;fill:black;fill-opacity:1;fill-rule:nonzero;stroke:none;stroke-width:8;stroke-linecap:butt;stroke-linejoin:miter;marker:none;marker-start:none;marker-mid:none;marker-end:none;stroke-miterlimit:4;stroke-dasharray:none;stroke-dashoffset:0;stroke-opacity:1;visibility:visible;display:inline;overflow:visible"/>
        </g>
        <g id="g7939" transform="matrix(4.650591e-2,0,0,4.650591e-2,1147.38,447.8727)">
          <g id="g7941" transform="translate(-11626.48,-3570.944)">
            <path d="M -2366.6584,2307.0162 L -8845.2057,5793.5185 L -9070.0392,7542.3859 L -8011.5051,8296.8834 L -7579.5651,8005.1611 L -7636.3732,6421.8728 L -2724.2248,3864.1179 L -2730.7768,4467.2479 L -1984.6735,4928.0994 L -1416.6601,4664.3423 L -1379.3982,2738.1994 L -2366.6584,2307.0162 z " id="path7943" sodipodi:nodetypes="cccccccccccc" style="opacity:1;color:black;fill:#555753;fill-opacity:1;fill-rule:nonzero;stroke:none;stroke-width:7.99999952;stroke-linecap:butt;stroke-linejoin:miter;marker:none;marker-start:none;marker-mid:none;marker-end:none;stroke-miterlimit:4;stroke-dasharray:none;stroke-dashoffset:0;stroke-opacity:1;visibility:visible;display:inline;overflow:visible"/>
            <path d="M -120.61507,292.43772 L -435.63961,451.88847 L -427.18286,546.04338 L -372.96589,577.18297 L -377.60866,476.92116 L -64.749849,316.50789 L -120.61507,292.43772 z " id="path7945" sodipodi:nodetypes="ccccccc" style="opacity:1;color:black;fill:#d3d7cf;fill-opacity:1;fill-rule:nonzero;stroke:none;stroke-width:8;stroke-linecap:butt;stroke-linejoin:miter;marker:none;marker-start:none;marker-mid:none;marker-end:none;stroke-miterlimit:4;stroke-dasharray:none;stroke-dashoffset:0;stroke-opacity:1;visibility:visible;display:inline;overflow:visible" transform="matrix(21.50265,0,0,21.50265,0,-4082.286)"/>
            <path d="M -9271.0611,5604.449 L -8282.7754,6169.1837 C -8282.7754,6169.1837 -9176.9386,5933.8776 -9271.0611,5604.449 z " id="path7947" style="opacity:1;color:black;fill:white;fill-opacity:1;fill-rule:nonzero;stroke:none;stroke-width:8;stroke-linecap:butt;stroke-linejoin:miter;marker:none;marker-start:none;marker-mid:none;marker-end:none;stroke-miterlimit:4;stroke-dasharray:none;stroke-dashoffset:0;stroke-opacity:1;visibility:visible;display:inline;overflow:visible"/>
          </g>
          <path d="M -14367.804,266.20117 L -13614.823,-157.34984 L -13614.824,1313.3134 L -14356.038,889.7624 L -14367.804,266.20117 z " id="path7949" sodipodi:nodetypes="ccccc" style="opacity:0.2;color:black;fill:black;fill-opacity:1;fill-rule:nonzero;stroke:none;stroke-width:8;stroke-linecap:butt;stroke-linejoin:miter;marker:none;marker-start:none;marker-mid:none;marker-end:none;stroke-miterlimit:4;stroke-dasharray:none;stroke-dashoffset:0;stroke-opacity:1;visibility:visible;display:inline;overflow:visible"/>
        </g>
        <g id="g7951" transform="matrix(4.650591e-2,0,0,4.650591e-2,1260.094,526.6632)">
          <g id="g7953" transform="translate(-11626.48,-3570.944)">
            <path d="M -2169.1566,2134.2274 L -8845.2057,5793.5185 L -9070.0392,7542.3859 L -8011.5051,8296.8834 L -7579.5651,8005.1611 L -7636.3732,6421.8728 L -2526.723,3691.3291 L -2533.275,4294.4591 L -1554.2305,4905.0585 L -986.21711,4483.2342 L -957.27455,2448.94 L -2169.1566,2134.2274 z " id="path7955" sodipodi:nodetypes="cccccccccccc" style="opacity:1;color:black;fill:#555753;fill-opacity:1;fill-rule:nonzero;stroke:none;stroke-width:8;stroke-linecap:butt;stroke-linejoin:miter;marker:none;marker-start:none;marker-mid:none;marker-end:none;stroke-miterlimit:4;stroke-dasharray:none;stroke-dashoffset:0;stroke-opacity:1;visibility:visible;display:inline;overflow:visible"/>
            <path d="M -122.82648,273.87803 L -435.63961,451.88847 L -427.18286,546.04338 L -372.96589,577.18297 L -377.60866,476.92116 L -44.134283,303.36476 L -122.82648,273.87803 z " id="path7957" sodipodi:nodetypes="ccccccc" style="opacity:1;color:black;fill:#d3d7cf;fill-opacity:1;fill-rule:nonzero;stroke:none;stroke-width:8;stroke-linecap:butt;stroke-linejoin:miter;marker:none;marker-start:none;marker-mid:none;marker-end:none;stroke-miterlimit:4;stroke-dasharray:none;stroke-dashoffset:0;stroke-opacity:1;visibility:visible;display:inline;overflow:visible" transform="matrix(21.50265,0,0,21.50265,0,-4082.286)"/>
            <path d="M -9271.0611,5604.449 L -8282.7754,6169.1837 C -8282.7754,6169.1837 -9176.9386,5933.8776 -9271.0611,5604.449 z " id="path7959" style="opacity:1;color:black;fill:white;fill-opacity:1;fill-rule:nonzero;stroke:none;stroke-width:8;stroke-linecap:butt;stroke-linejoin:miter;marker:none;marker-start:none;marker-mid:none;marker-end:none;stroke-miterlimit:4;stroke-dasharray:none;stroke-dashoffset:0;stroke-opacity:1;visibility:visible;display:inline;overflow:visible"/>
          </g>
          <path d="M -14130.133,110.05112 L -13135.891,-305.18057 L -13160.851,1340.1885 L -14118.367,733.61235 L -14130.133,110.05112 z " id="path7961" sodipodi:nodetypes="ccccc" style="opacity:0.2;color:black;fill:black;fill-opacity:1;fill-rule:nonzero;stroke:none;stroke-width:8;stroke-linecap:butt;stroke-linejoin:miter;marker:none;marker-start:none;marker-mid:none;marker-end:none;stroke-miterlimit:4;stroke-dasharray:none;stroke-dashoffset:0;stroke-opacity:1;visibility:visible;display:inline;overflow:visible"/>
        </g>
        <g id="g7864" transform="matrix(4.650516e-2,-2.637793e-4,2.637793e-4,4.650516e-2,1052.938,382.0451)">
          <path d="M -16472.804,-1496.4329 L -20575.742,34.164828 L -20608.601,1319.8867 L -12774.069,6139.5163 L -8703.7047,3970.7707 L -8650.3186,2125.6087 L -16472.804,-1496.4329 z " id="path7859" sodipodi:nodetypes="ccccccc" style="color:black;fill:#2e3436;fill-opacity:1;fill-rule:nonzero;stroke:none;stroke-width:8;stroke-linecap:butt;stroke-linejoin:miter;marker:none;marker-start:none;marker-mid:none;marker-end:none;stroke-miterlimit:4;stroke-dashoffset:0;stroke-opacity:1;visibility:visible;display:inline;overflow:visible"/>
          <path d="M -20559.046,69.01357 L -16482.688,-1494.5455 L -8563.2302,2134.1095 L -12960.921,4422.6677 L -20559.046,69.01357 z " id="rect7856" sodipodi:nodetypes="ccccc" style="opacity:0.3;color:black;fill:url(#linearGradient2032);fill-opacity:1;fill-rule:nonzero;stroke:none;stroke-width:8;stroke-linecap:butt;stroke-linejoin:miter;marker:none;marker-start:none;marker-mid:none;marker-end:none;stroke-miterlimit:4;stroke-dashoffset:0;stroke-opacity:1;visibility:visible;display:inline;overflow:visible"/>
        </g>
        <path d="M 97.858268,390.9374 L 96.80277,451.03877 L 462.69341,671.84715 L 649.27429,568.71679 L 648.00507,487.7054 L 453.40786,577.01747 L 97.858268,390.9374 z " id="path7974" sodipodi:nodetypes="ccccccc" style="opacity:0.4;color:black;fill:url(#linearGradient2034);fill-opacity:1;fill-rule:nonzero;stroke:none;stroke-width:8;stroke-linecap:butt;stroke-linejoin:miter;marker:none;marker-start:none;marker-mid:none;marker-end:none;stroke-miterlimit:4;stroke-dasharray:none;stroke-dashoffset:0;stroke-opacity:1;visibility:visible;display:inline;overflow:visible"/>
      </g>
      <path d="M 643.24015,467.49886 C 643.76823,467.77146 644.29148,467.89788 644.80526,467.87569 C 645.32498,467.85324 645.91372,467.68211 646.56627,467.3519 C 647.2166,467.02282 647.55974,466.72467 647.61372,466.47184 C 647.66711,466.2217 647.4392,465.97575 646.92142,465.73278 L 645.88224,465.22669 L 642.18624,466.93586 L 643.24015,467.49886 M 639.64859,468.0117 L 634.55328,470.36049 L 632.29389,469.00114 L 646.13882,462.59742 L 649.82164,464.3643 C 651.04993,464.89157 651.63714,465.45696 651.60088,466.07029 C 651.56462,466.68383 650.90648,467.39592 649.5796,468.15871 C 648.67051,468.6813 647.75085,469.0168 646.84131,469.18043 C 645.93577,469.34334 645.01982,469.32953 644.10045,469.15552 C 644.33499,469.37909 644.3808,469.65237 644.2581,469.97299 C 644.13496,470.29479 643.82232,470.71256 643.30413,471.22901 L 640.85142,473.81221 L 638.09689,472.36626 L 640.25466,470.13895 C 640.70894,469.70165 640.93855,469.3608 640.94855,469.11351 C 640.95842,468.86982 640.76277,468.63498 640.35385,468.40915 L 639.64859,468.0117 M 657.68696,470.06878 C 656.98476,469.75673 656.07969,469.7762 654.9487,470.10236 C 653.80468,470.43231 652.54349,471.02827 651.13831,471.86661 C 649.75222,472.69356 648.86081,473.39642 648.51814,474.02253 C 648.17397,474.65139 648.40152,475.14421 649.17698,475.49715 C 649.95742,475.85236 650.92974,475.90196 652.08865,475.6262 C 653.24181,475.35179 655.16848,474.84976 656.47695,473.98525 C 657.81163,473.10342 658.65255,472.17407 658.98578,471.4976 C 659.31919,470.82079 658.41818,470.39271 657.68696,470.06878 M 660.57739,468.7966 C 662.5477,469.74304 663.54868,470.87173 663.28221,472.07594 C 663.02238,473.25017 661.00398,474.00037 658.83222,475.36692 C 656.7347,476.68676 654.34346,477.32133 652.30582,477.64018 C 650.25245,477.96147 648.40764,477.7205 646.77849,476.94734 C 645.1568,476.17773 644.47831,475.23173 644.77325,474.13527 C 645.09956,473.06178 646.40653,471.99157 648.59845,470.78856 C 650.83876,469.55898 652.94231,468.65747 654.97293,468.20037 C 656.95774,467.72641 658.82033,467.94511 660.57739,468.7966 M 669.37932,473.04849 L 672.95192,474.39709 L 668.20425,479.06231 L 678.12591,476.97919 L 682.86446,478.69651 L 669.10764,488.54065 L 665.89316,486.58748 L 676.58296,479.61778 L 664.41492,482.57725 L 662.54393,481.37571 L 668.24374,476.24451 L 656.75736,481.55547 L 654.22531,480.30424 L 669.37932,473.04849" id="text8334" sodipodi:nodetypes="cssscccccccccssscsccccscccsssssssccsssscscccccccccccccccc" style="font-size:25.01827812px;font-style:normal;font-variant:normal;font-weight:normal;font-stretch:normal;text-align:start;line-height:125%;writing-mode:lr-tb;text-anchor:start;fill:white;fill-opacity:1;stroke:none;stroke-width:1px;stroke-linecap:butt;stroke-linejoin:miter;stroke-opacity:1;font-family:Bitstream Vera Sans"/>
    </g>
  </g>
</svg>
